<?xml version="1.0" encoding="UTF-8"?><svg id="Layer_2" xmlns="http://www.w3.org/2000/svg" xmlns:xlink="http://www.w3.org/1999/xlink" viewBox="0 0 550 369.55"><defs><style>.cls-1{fill:url(#New_Gradient_Swatch_1-22);}.cls-2{fill:url(#New_Gradient_Swatch_1-19);}.cls-3{fill:url(#New_Gradient_Swatch_1-9);}.cls-4{fill:url(#New_Gradient_Swatch_1-17);}.cls-5{fill:url(#New_Gradient_Swatch_1-12);}.cls-6{fill:url(#New_Gradient_Swatch_1-10);}.cls-7{fill:url(#New_Gradient_Swatch_1-18);}.cls-8{fill:url(#New_Gradient_Swatch_1-3);}.cls-9{fill:url(#New_Gradient_Swatch_1-16);}.cls-10{fill:url(#New_Gradient_Swatch_1-5);}.cls-11{fill:url(#New_Gradient_Swatch_1-30);}.cls-12{fill:url(#New_Gradient_Swatch_1-24);}.cls-13{fill:url(#New_Gradient_Swatch_1-28);}.cls-14{fill:url(#New_Gradient_Swatch_1-14);}.cls-15{fill:url(#New_Gradient_Swatch_1-7);}.cls-16{fill:url(#New_Gradient_Swatch_1-6);}.cls-17{fill:url(#New_Gradient_Swatch_1-11);}.cls-18{fill:url(#New_Gradient_Swatch_1-23);}.cls-19{fill:url(#New_Gradient_Swatch_1-27);}.cls-20{fill:url(#New_Gradient_Swatch_1-13);}.cls-21{fill:url(#New_Gradient_Swatch_1-15);}.cls-22{fill:url(#New_Gradient_Swatch_1-21);}.cls-23{fill:url(#New_Gradient_Swatch_1-25);}.cls-24{fill:url(#New_Gradient_Swatch_1-26);}.cls-25{fill:url(#New_Gradient_Swatch_1);}.cls-26{fill:url(#New_Gradient_Swatch_1-2);}.cls-27{fill:url(#New_Gradient_Swatch_1-29);}.cls-28{fill:url(#New_Gradient_Swatch_1-8);}.cls-29{fill:url(#New_Gradient_Swatch_1-4);}.cls-30{fill:url(#New_Gradient_Swatch_1-20);}</style><linearGradient id="New_Gradient_Swatch_1" x1="59.23" y1="0" x2="59.23" y2="328.68" gradientUnits="userSpaceOnUse"><stop offset="0" stop-color="#fd881e"/><stop offset="1" stop-color="#ff6118"/></linearGradient><linearGradient id="New_Gradient_Swatch_1-2" x1="204.21" x2="204.21" xlink:href="#New_Gradient_Swatch_1"/><linearGradient id="New_Gradient_Swatch_1-3" x1="345.48" x2="345.48" xlink:href="#New_Gradient_Swatch_1"/><linearGradient id="New_Gradient_Swatch_1-4" x1="490.62" x2="490.62" xlink:href="#New_Gradient_Swatch_1"/><linearGradient id="New_Gradient_Swatch_1-5" x1="515.74" y1="301.83" x2="515.74" y2="328.68" xlink:href="#New_Gradient_Swatch_1"/><linearGradient id="New_Gradient_Swatch_1-6" x1="3.54" y1="353.59" x2="3.54" y2="369.55" xlink:href="#New_Gradient_Swatch_1"/><linearGradient id="New_Gradient_Swatch_1-7" x1="26.98" y1="353.59" x2="26.98" y2="369.55" xlink:href="#New_Gradient_Swatch_1"/><linearGradient id="New_Gradient_Swatch_1-8" x1="50.85" y1="353.59" x2="50.85" y2="369.55" xlink:href="#New_Gradient_Swatch_1"/><linearGradient id="New_Gradient_Swatch_1-9" x1="71.07" y1="365.85" x2="71.07" y2="369.55" xlink:href="#New_Gradient_Swatch_1"/><linearGradient id="New_Gradient_Swatch_1-10" x1="92.24" y1="353.59" x2="92.24" y2="369.55" xlink:href="#New_Gradient_Swatch_1"/><linearGradient id="New_Gradient_Swatch_1-11" x1="115.07" y1="353.59" x2="115.07" y2="369.55" xlink:href="#New_Gradient_Swatch_1"/><linearGradient id="New_Gradient_Swatch_1-12" x1="136.21" y1="353.59" x2="136.21" y2="369.55" xlink:href="#New_Gradient_Swatch_1"/><linearGradient id="New_Gradient_Swatch_1-13" x1="156.87" y1="353.59" x2="156.87" y2="369.55" xlink:href="#New_Gradient_Swatch_1"/><linearGradient id="New_Gradient_Swatch_1-14" x1="177.38" y1="365.85" x2="177.38" y2="369.55" xlink:href="#New_Gradient_Swatch_1"/><linearGradient id="New_Gradient_Swatch_1-15" x1="198.52" y1="353.59" x2="198.52" y2="369.55" xlink:href="#New_Gradient_Swatch_1"/><linearGradient id="New_Gradient_Swatch_1-16" x1="220.96" y1="353.59" x2="220.96" y2="369.55" xlink:href="#New_Gradient_Swatch_1"/><linearGradient id="New_Gradient_Swatch_1-17" x1="243.34" y1="353.59" x2="243.34" y2="369.55" xlink:href="#New_Gradient_Swatch_1"/><linearGradient id="New_Gradient_Swatch_1-18" x1="263.61" y1="353.59" x2="263.61" y2="369.55" xlink:href="#New_Gradient_Swatch_1"/><linearGradient id="New_Gradient_Swatch_1-19" x1="284.48" y1="353.59" x2="284.48" y2="369.55" xlink:href="#New_Gradient_Swatch_1"/><linearGradient id="New_Gradient_Swatch_1-20" x1="306.83" y1="353.59" x2="306.83" y2="369.55" xlink:href="#New_Gradient_Swatch_1"/><linearGradient id="New_Gradient_Swatch_1-21" x1="327.64" y1="365.85" x2="327.64" y2="369.55" xlink:href="#New_Gradient_Swatch_1"/><linearGradient id="New_Gradient_Swatch_1-22" x1="348.67" y1="353.59" x2="348.67" y2="369.55" xlink:href="#New_Gradient_Swatch_1"/><linearGradient id="New_Gradient_Swatch_1-23" x1="369.46" y1="353.59" x2="369.46" y2="369.55" xlink:href="#New_Gradient_Swatch_1"/><linearGradient id="New_Gradient_Swatch_1-24" x1="391.59" y1="353.59" x2="391.59" y2="369.55" xlink:href="#New_Gradient_Swatch_1"/><linearGradient id="New_Gradient_Swatch_1-25" x1="415.45" y1="353.59" x2="415.45" y2="369.55" xlink:href="#New_Gradient_Swatch_1"/><linearGradient id="New_Gradient_Swatch_1-26" x1="437.83" y1="353.59" x2="437.83" y2="369.55" xlink:href="#New_Gradient_Swatch_1"/><linearGradient id="New_Gradient_Swatch_1-27" x1="460.08" y1="353.59" x2="460.08" y2="369.55" xlink:href="#New_Gradient_Swatch_1"/><linearGradient id="New_Gradient_Swatch_1-28" x1="481.6" y1="353.59" x2="481.6" y2="369.55" xlink:href="#New_Gradient_Swatch_1"/><linearGradient id="New_Gradient_Swatch_1-29" x1="503.93" y1="353.59" x2="503.93" y2="369.55" xlink:href="#New_Gradient_Swatch_1"/><linearGradient id="New_Gradient_Swatch_1-30" x1="526.59" y1="353.59" x2="526.59" y2="369.55" xlink:href="#New_Gradient_Swatch_1"/></defs><g id="Layer_2-2"><path class="cls-25" d="m99.33,0l19.13,23.28v282.13l-19.13,23.28H0V0h99.33Zm-24.99,276.13l4.32-5.63V58.06l-4.32-5.63h-34.86v223.7h34.86Z"/><path class="cls-26" d="m145.6,305.41V23.28L164.72,0h78.97l19.13,23.28v70.94h-39.18v-36.03l-4.63-5.63h-29.61l-4.63,5.63v212.32l4.63,5.63h29.61l4.63-5.63v-36.03h39.18v70.94l-19.13,23.28h-78.97l-19.13-23.28Z"/><path class="cls-8" d="m404.09,23.28v282.13l-19.13,23.28h-78.97l-19.13-23.28V23.28L306,0h78.97l19.13,23.28Zm-44.11,29.28h-29.61l-4.32,5.26v213.44l4.32,5.26h29.61l4.63-5.26V57.81l-4.63-5.26Z"/><path class="cls-29" d="m431.24,328.68V0h99.64l19.13,23.28v154.01l-19.13,23.28h-60.46v128.12h-39.18Zm74.65-180.3l4.63-5.63V57.81l-4.63-5.26h-35.47v95.83h35.47Z"/><rect class="cls-10" x="502.32" y="301.83" width="26.85" height="26.85"/><path class="cls-16" d="m6.01,353.59v2.58h-3.22v4.09h2.38v2.58h-2.38v6.7h-1.72v-15.96h4.94Z"/><path class="cls-15" d="m27.43,366.12h-.9l-1.67-7.35v10.77h-1.72v-15.96h2.15l1.7,7.54,1.7-7.54h2.15v15.96h-1.72v-10.77l-1.67,7.35Z"/><path class="cls-28" d="m51.95,369.55h-2.2l-1.93-15.96h1.72l1.3,11.86,1.3-11.86h1.72l-1.93,15.96Z"/><path class="cls-3" d="m71.66,365.85l.6.92v1.85l-.6.92h-1.2l-.6-.92v-1.85l.6-.92h1.2Z"/><path class="cls-6" d="m89.6,369.55v-15.96h4.45l.84,1.3v7.14l-.84,1.3.84,6.21h-1.7l-.84-6.21h-1.03v6.21h-1.72Zm3.38-8.8l.19-.32v-3.95l-.19-.29h-1.66v4.56h1.66Z"/><path class="cls-17" d="m116.13,366.1h-2.12l-.46,3.44h-1.76l2.44-15.96h1.68l2.44,15.96h-1.77l-.46-3.44Zm-.34-2.58l-.72-5.38-.72,5.38h1.44Z"/><path class="cls-5" d="m135.35,369.55v-15.96h1.72v15.96h-1.72Z"/><path class="cls-20" d="m159.24,369.55h-4.74v-15.96h1.74v13.38h3v2.58Z"/><path class="cls-14" d="m177.98,365.85l.6.92v1.85l-.6.92h-1.2l-.6-.92v-1.85l.6-.92h1.2Z"/><path class="cls-21" d="m195.91,369.55v-15.96h4.39l.84,1.3v7.14l-.84,1.3h-2.66v6.21h-1.72Zm3.29-8.8l.2-.32v-3.95l-.2-.29h-1.56v4.56h1.56Z"/><path class="cls-9" d="m223.54,354.89v13.35l-.84,1.3h-3.48l-.84-1.3v-13.35l.84-1.3h3.48l.84,1.3Zm-1.94,1.3h-1.3l-.19.29v10.18l.19.29h1.3l.2-.29v-10.18l-.2-.29Z"/><path class="cls-4" d="m245.71,369.55h-4.74v-15.96h1.74v13.38h3v2.58Z"/><path class="cls-7" d="m262.74,369.55v-15.96h1.72v15.96h-1.72Z"/><path class="cls-2" d="m281.9,368.24v-13.35l.84-1.3h3.48l.84,1.3v3.3h-1.72v-1.68l-.2-.31h-1.3l-.2.31v10.12l.2.31h1.3l.2-.31v-1.68h1.72v3.3l-.84,1.3h-3.48l-.84-1.3Z"/><path class="cls-30" d="m304.35,369.55v-15.96h4.94v2.58h-3.22v3.97h2.39v2.58h-2.39v4.24h3.22v2.58h-4.94Z"/><path class="cls-22" d="m328.23,365.85l.6.92v1.85l-.6.92h-1.2l-.6-.92v-1.85l.6-.92h1.2Z"/><path class="cls-1" d="m349.52,358.19v-1.68l-.2-.31h-1.32l-.2.31v3.32l.2.31h2.42l.84,1.3v6.8l-.84,1.3h-3.5l-.84-1.3v-3.3h1.72v1.7l.2.32h1.32l.2-.32v-3.61l-.2-.32h-2.4l-.84-1.3v-6.53l.84-1.3h3.5l.84,1.3v3.3h-1.74Z"/><path class="cls-18" d="m368.6,369.55v-15.96h1.72v15.96h-1.72Z"/><path class="cls-12" d="m392.04,366.12h-.9l-1.67-7.35v10.77h-1.72v-15.96h2.15l1.7,7.54,1.7-7.54h2.15v15.96h-1.72v-10.77l-1.67,7.35Z"/><path class="cls-23" d="m418.03,368.24l-.84,1.3h-3.48l-.84-1.3v-14.66h1.72v13.08l.19.29h1.33l.19-.29v-13.08h1.72v14.66Z"/><path class="cls-24" d="m440.2,369.55h-4.74v-15.96h1.74v13.38h3v2.58Z"/><path class="cls-19" d="m461.14,366.1h-2.12l-.46,3.44h-1.77l2.44-15.96h1.68l2.44,15.96h-1.76l-.46-3.44Zm-.34-2.58l-.72-5.38-.72,5.38h1.44Z"/><path class="cls-13" d="m484.32,356.17h-1.86v13.38h-1.72v-13.38h-1.86v-2.58h5.45v2.58Z"/><path class="cls-27" d="m506.51,354.89v13.35l-.84,1.3h-3.48l-.84-1.3v-13.35l.84-1.3h3.48l.84,1.3Zm-1.94,1.3h-1.3l-.19.29v10.18l.19.29h1.3l.2-.29v-10.18l-.2-.29Z"/><path class="cls-11" d="m523.94,369.55v-15.96h4.45l.84,1.3v7.14l-.84,1.3.84,6.21h-1.7l-.84-6.21h-1.03v6.21h-1.72Zm3.38-8.8l.19-.32v-3.95l-.19-.29h-1.66v4.56h1.66Z"/></g></svg>