<?xml version="1.0" encoding="utf-8"?>
<!-- Generator: Adobe Illustrator 27.7.0, SVG Export Plug-In . SVG Version: 6.00 Build 0)  -->
<svg version="1.1" id="Layer_1" xmlns="http://www.w3.org/2000/svg" xmlns:xlink="http://www.w3.org/1999/xlink" x="0px" y="0px"
	 viewBox="0 0 122 37" style="enable-background:new 0 0 122 37;" xml:space="preserve">
<style type="text/css">
	.st0{fill:#FFFFFF;}
</style>
<path class="st0" d="M73.4,16.3c-0.6,0.5-1.3,0.7-2.2,0.7c-0.7,0-1.2-0.1-1.7-0.3c-0.5-0.2-0.9-0.4-1.3-0.8l1.1-1.1
	c0.2,0.2,0.5,0.4,0.9,0.5c0.3,0.1,0.7,0.2,1.1,0.2c1,0,1.5-0.3,1.5-1c0-0.3-0.1-0.5-0.2-0.7c-0.1-0.2-0.4-0.3-0.8-0.3l-0.5-0.1
	l-0.5-0.1c-0.7-0.1-1.3-0.3-1.6-0.7c-0.4-0.4-0.6-0.9-0.6-1.6c0-0.8,0.3-1.4,0.8-1.8c0.5-0.5,1.2-0.7,2.1-0.7c0.6,0,1.1,0.1,1.5,0.2
	c0.4,0.2,0.8,0.4,1.2,0.7l-1,1c-0.2-0.2-0.5-0.4-0.8-0.5c-0.3-0.1-0.6-0.1-0.9-0.1c-0.4,0-0.7,0.1-1,0.3c-0.2,0.2-0.3,0.4-0.3,0.8
	c0,0.2,0.1,0.4,0.3,0.6c0.2,0.2,0.4,0.3,0.8,0.3l0.5,0.1L72,12c0.4,0.1,0.7,0.1,0.9,0.2c0.3,0.1,0.5,0.2,0.7,0.4
	c0.4,0.4,0.6,1,0.6,1.8C74.2,15.2,73.9,15.8,73.4,16.3z M80.4,10v6.9h-1.6V10h-2.2V8.5h6V10H80.4z M86,16.9V8.5h5.5V10h-3.9v2h3.3
	v1.4h-3.3v2h3.9v1.4H86z M99.9,16.9l-0.5-1.5h-3l-0.5,1.5h-1.7l3-8.3h1.3l3,8.3H99.9z M98,11l-1.1,3H99L98,11z M110.4,16.9V12
	l-1.6,3.2h-1.1l-1.6-3.2v4.9h-1.6V8.5h1.6l2.2,4.5l2.2-4.5h1.6v8.3C112.1,16.9,110.4,16.9,110.4,16.9z M115.6,8.3
	c0.6,0,1.1,0.5,1.1,1.1c0,0.6-0.5,1.1-1.1,1.1s-1.1-0.5-1.1-1.1C114.5,8.8,115,8.3,115.6,8.3z M115.6,8.5c-0.5,0-0.9,0.4-0.9,0.9
	c0,0.5,0.4,0.9,0.9,0.9c0.5,0,0.9-0.4,0.9-0.9C116.5,8.9,116.1,8.5,115.6,8.5z M115.4,10h-0.2V8.8c0.1,0,0.2,0,0.3,0
	c0.2,0,0.3,0,0.4,0.1C116,8.9,116,9,116,9.1c0,0.2-0.1,0.3-0.2,0.3v0c0.1,0,0.2,0.1,0.2,0.3c0,0.2,0.1,0.3,0.1,0.3h-0.2
	c0,0-0.1-0.2-0.1-0.3c0-0.2-0.1-0.2-0.3-0.2h-0.1C115.4,9.5,115.4,10,115.4,10z M115.4,9.3h0.1c0.2,0,0.3-0.1,0.3-0.2
	c0-0.1-0.1-0.2-0.3-0.2c-0.1,0-0.1,0-0.1,0V9.3z"/>
<path class="st0" d="M56.5,5c-4.4,0-7.9,3.6-7.9,7.9c0,0,0,0.1,0,0.1l-5.1,7.4c-0.8,0-1.7,0.1-2.4,0.4c-0.3,0.1-0.7,0.3-1,0.5
	l-23-9.5c-0.4-1.8-1.6-3.4-3.4-4.1c-2.9-1.2-6.3,0.2-7.6,3.1c-1.2,2.9,0.2,6.3,3.1,7.6c1.4,0.6,3,0.6,4.4,0c0.3-0.1,0.6-0.3,0.9-0.5
	l23.1,9.5c0.4,1.8,1.6,3.3,3.4,4.1c2.9,1.2,6.3-0.2,7.6-3.1c0.3-0.8,0.5-1.6,0.4-2.4l7.3-5.2c0.1,0,0.1,0,0.2,0
	c4.4,0,7.9-3.6,7.9-7.9S60.9,5,56.5,5 M9.7,17.2C8,16.5,7,14.8,7,13.1c0-0.6,0.1-1.2,0.3-1.7C8.3,9.1,10.9,8,13.1,9
	c1.1,0.4,1.9,1.3,2.3,2.2l-2.6-1.1c-1.7-0.7-3.6,0.1-4.3,1.8c-0.7,1.7,0.1,3.6,1.8,4.3l2.6,1.1C11.9,17.7,10.8,17.6,9.7,17.2
	 M47.4,27.9c-0.9,2.3-3.6,3.4-5.8,2.4c-1-0.4-1.8-1.2-2.3-2.2l2.6,1.1c1.7,0.7,3.6-0.1,4.3-1.8c0.7-1.7-0.1-3.6-1.8-4.3L41.7,22
	c1-0.4,2.2-0.4,3.3,0c1.1,0.5,2,1.3,2.4,2.4C47.9,25.6,47.8,26.8,47.4,27.9 M56.5,18.2c-2.9,0-5.3-2.4-5.3-5.3
	c0-2.9,2.4-5.3,5.3-5.3s5.3,2.4,5.3,5.3C61.8,15.8,59.5,18.2,56.5,18.2 M56.5,16.9c-2.2,0-4-1.8-4-4s1.8-4,4-4c2.2,0,4,1.8,4,4
	S58.7,16.9,56.5,16.9"/>
</svg>
